<?xml version="1.0" encoding="utf-8"?>
<!-- Generator: Adobe Illustrator 25.2.0, SVG Export Plug-In . SVG Version: 6.00 Build 0)  -->
<svg version="1.1" xmlns="http://www.w3.org/2000/svg" xmlns:xlink="http://www.w3.org/1999/xlink" x="0px" y="0px"
	 viewBox="0 0 3000 3000" style="enable-background:new 0 0 3000 3000;" xml:space="preserve">
<style type="text/css">
	.st0{display:none;}
	.st1{display:inline;fill:#0C0C0C;}
	.st2{display:none;fill:#FFFFFF;}
	.st3{fill:#FFFFFF;}
	.st4{fill:#2970FF;}
</style>
<g id="Layer_2" class="st0">
	<rect x="3194.87" y="34.37" class="st1" width="2964.88" height="1127.75"/>
</g>
<g id="Layer_3">
	<rect x="0" y="0" class="st2" width="3000" height="3000"/>
	<g id="Layer_4">
	</g>
	<rect x="-82.17" y="-82.17" class="st3" width="3164.34" height="3164.34"/>
	<g>
		<g>
			<path class="st4" d="M730.44,1596.44H607.19c-2.63,0-5.15,1.04-7,2.9l-45.56,45.56H435v-7.87c0-16.23-13.2-29.43-29.43-29.43
				h-35.55c-16.23,0-29.43,13.2-29.43,29.43v35.55c0,16.23,13.2,29.43,29.43,29.43h35.55c16.23,0,29.43-13.2,29.43-29.43v-7.86
				h123.73c2.63,0,5.15-1.04,7-2.9l45.56-45.56h119.14c5.47,0,9.91-4.43,9.91-9.91C740.34,1600.88,735.91,1596.44,730.44,1596.44z
				 M415.18,1672.58c0,5.3-4.31,9.62-9.62,9.62h-35.55c-5.3,0-9.61-4.31-9.61-9.62v-35.55c0-5.3,4.31-9.61,9.61-9.61h35.55
				c5.3,0,9.62,4.31,9.62,9.61V1672.58z"/>
			<path class="st4" d="M391.78,1392.39h35.55c16.23,0,29.43-13.2,29.43-29.43v-7.87h124l45.56,45.56c1.86,1.86,4.38,2.9,7,2.9
				h97.12c5.47,0,9.91-4.43,9.91-9.91c0-5.47-4.44-9.91-9.91-9.91h-93.02l-45.56-45.56c-1.86-1.86-4.38-2.9-7-2.9h-128.1v-7.87
				c0-16.23-13.2-29.43-29.43-29.43h-35.55c-16.23,0-29.43,13.2-29.43,29.43v35.55C362.35,1379.19,375.55,1392.39,391.78,1392.39z
				 M382.16,1327.42c0-5.3,4.31-9.62,9.61-9.62h35.55c5.3,0,9.61,4.31,9.61,9.62v35.55c0,5.3-4.31,9.62-9.61,9.62h-35.55
				c-5.3,0-9.61-4.31-9.61-9.62V1327.42z"/>
			<path class="st4" d="M730.44,1528.16H552.71v-7.86c0-16.23-13.2-29.43-29.43-29.43h-35.55c-16.23,0-29.43,13.2-29.43,29.43v35.55
				c0,16.23,13.2,29.43,29.43,29.43h35.55c16.23,0,29.43-13.2,29.43-29.43v-7.87h177.73c5.47,0,9.91-4.43,9.91-9.91
				C740.34,1532.6,735.91,1528.16,730.44,1528.16z M532.89,1555.85c0,5.3-4.31,9.61-9.61,9.61h-35.55c-5.3,0-9.61-4.31-9.61-9.61
				v-35.55c0-5.3,4.31-9.62,9.61-9.62h35.55c5.3,0,9.61,4.31,9.61,9.62V1555.85z"/>
			<path class="st4" d="M730.44,1458.82H608.67l-44.88-44.88c-1.86-1.86-4.38-2.9-7.01-2.9H451.31c-2.63,0-5.15,1.04-7,2.9
				l-44.88,44.88h-55.04v-7.87c0-16.23-13.2-29.43-29.43-29.43h-35.55c-16.23,0-29.43,13.2-29.43,29.43v35.55
				c0,16.23,13.2,29.43,29.43,29.43h35.55c16.23,0,29.43-13.2,29.43-29.43v-7.87h59.15c2.63,0,5.15-1.04,7-2.9l44.88-44.88h97.27
				l44.88,44.88c1.86,1.86,4.38,2.9,7.01,2.9h125.87c5.47,0,9.91-4.43,9.91-9.91C740.34,1463.25,735.91,1458.82,730.44,1458.82z
				 M324.57,1486.5c0,5.3-4.31,9.61-9.61,9.61h-35.55c-5.3,0-9.62-4.31-9.62-9.61v-35.55c0-5.3,4.31-9.62,9.62-9.62h35.55
				c5.3,0,9.61,4.31,9.61,9.62V1486.5z"/>
		</g>
		<g>
			<path class="st4" d="M862.33,1469.64c0,2.7,0.82,4.82,2.46,6.36c1.63,1.55,3.51,2.31,5.64,2.31h86.75
				c8.86,0,16.24,1.69,22.12,5.06c5.88,3.38,10.55,7.86,14.02,13.45s5.93,12,7.37,19.23c1.45,7.23,2.17,14.61,2.17,22.12v25.45
				c0,7.52-0.82,14.75-2.46,21.69c-1.64,6.94-4.29,13.01-7.95,18.22c-3.66,5.21-8.43,9.35-14.31,12.43
				c-5.88,3.09-13.06,4.63-21.54,4.63H826.19c-3.09,0-5.26-0.96-6.51-2.89c-1.26-1.92-1.88-4.24-1.88-6.94v-23.13
				c0-2.7,0.62-5.01,1.88-6.94c1.25-1.92,3.42-2.89,6.51-2.89h123.47c4.63,0,7.52-1.68,8.68-5.06c1.16-3.37,1.74-6.99,1.74-10.84
				v-24.87c0-3.66-0.58-7.23-1.74-10.7c-1.16-3.47-3.95-5.21-8.39-5.21H863.2c-16,0-27.52-4.53-34.55-13.59
				c-7.04-9.06-10.56-21.69-10.56-37.88v-37.3c0-5.78,0.67-11.66,2.03-17.64c1.35-5.97,3.71-11.32,7.08-16.05
				c3.37-4.72,8-8.62,13.88-11.71c5.88-3.08,13.45-4.63,22.7-4.63h124.63c2.89,0,4.96,0.97,6.21,2.89c1.25,1.93,1.88,4.24,1.88,6.94
				v23.13c0,2.7-0.63,5.02-1.88,6.94c-1.25,1.93-3.32,2.89-6.21,2.89H870.72c-1.93,0-3.81,0.68-5.64,2.02
				c-1.83,1.35-2.75,3.09-2.75,5.21V1469.64z"/>
			<path class="st4" d="M1187.94,1382.31c15.04,0,27.23,2.27,36.58,6.79c9.35,4.53,16.63,10.8,21.83,18.8
				c5.21,8,8.68,17.54,10.41,28.63c1.73,11.09,2.6,23.18,2.6,36.29v57.26c0,13.11-0.87,25.21-2.6,36.29
				c-1.73,11.09-5.16,20.68-10.27,28.77c-5.11,8.1-12.34,14.41-21.69,18.94c-9.35,4.53-21.64,6.8-36.87,6.8h-70.56
				c-15.04,0-27.23-2.31-36.58-6.94c-9.35-4.63-16.58-10.99-21.69-19.09c-5.11-8.1-8.53-17.69-10.26-28.77
				c-1.73-11.08-2.6-23.08-2.6-36v-57.26c0-12.91,0.87-24.91,2.6-36c1.74-11.08,5.21-20.67,10.41-28.77
				c5.21-8.1,12.43-14.41,21.69-18.94c9.25-4.53,21.4-6.79,36.44-6.79H1187.94z M1216.28,1467.9c0-5.97-0.19-11.57-0.58-16.77
				s-1.49-9.73-3.32-13.59c-1.83-3.85-4.77-6.89-8.82-9.11c-4.05-2.21-9.74-3.32-17.06-3.32h-67.67c-7.14,0-12.72,1.11-16.77,3.32
				c-4.05,2.22-7.04,5.26-8.96,9.11c-1.93,3.86-3.09,8.39-3.47,13.59c-0.39,5.21-0.58,10.8-0.58,16.77v67.38
				c0,5.98,0.19,11.57,0.58,16.77c0.38,5.21,1.54,9.69,3.47,13.45c1.92,3.76,4.92,6.75,8.96,8.97c4.05,2.22,9.64,3.32,16.77,3.32
				h67.67c7.32,0,13.01-1.11,17.06-3.32c4.05-2.22,6.99-5.21,8.82-8.97c1.83-3.76,2.94-8.24,3.32-13.45s0.58-10.79,0.58-16.77
				V1467.9z"/>
			<path class="st4" d="M1479.42,1382.31c2.89,0,4.96,1.01,6.21,3.04c1.25,2.02,1.88,4.39,1.88,7.08c0,1.73,0.15,4.44,0.43,8.1
				c0.29,3.66,0.34,7.28,0.15,10.84c-0.2,3.57-0.92,6.75-2.17,9.54c-1.26,2.8-3.43,4.19-6.51,4.19h-103.81
				c-7.33,0-13.01,1.06-17.06,3.18c-4.05,2.12-7.04,5.11-8.96,8.96c-1.93,3.86-3.09,8.34-3.47,13.45
				c-0.39,5.11-0.58,10.75-0.58,16.92v67.38c0,5.98,0.19,11.62,0.58,16.92c0.38,5.3,1.54,9.83,3.47,13.59
				c1.92,3.76,4.92,6.75,8.96,8.97c4.05,2.22,9.73,3.32,17.06,3.32h103.81c2.89,0,4.96,1.01,6.21,3.04s1.88,4.39,1.88,7.09
				c0,1.93,0.15,4.72,0.43,8.38c0.29,3.67,0.34,7.33,0.15,10.99c-0.2,3.66-0.92,6.79-2.17,9.4c-1.26,2.6-3.43,3.9-6.51,3.9h-105.26
				c-14.85,0-26.94-2.21-36.29-6.65c-9.35-4.43-16.63-10.6-21.83-18.51c-5.21-7.9-8.72-17.45-10.55-28.63
				c-1.84-11.18-2.75-23.52-2.75-37.01v-56.97c0-13.11,0.87-25.2,2.6-36.29c1.73-11.08,5.21-20.63,10.41-28.63
				c5.21-8,12.48-14.27,21.83-18.8c9.35-4.53,21.54-6.79,36.58-6.79H1479.42z"/>
			<path class="st4" d="M1566.45,1382.31c1.16,0,2.79,0.58,4.92,1.74c2.12,1.16,3.18,3.95,3.18,8.38v218.33
				c0,4.44-1.06,7.23-3.18,8.39c-2.12,1.16-3.76,1.74-4.92,1.74h-26.6c-1.16,0-2.8-0.58-4.92-1.74c-2.12-1.16-3.18-3.95-3.18-8.39
				v-218.33c0-4.43,1.06-7.23,3.18-8.38c2.12-1.16,3.76-1.74,4.92-1.74H1566.45z"/>
			<path class="st4" d="M1724.92,1379.13c5.21,0,9.69,0.77,13.45,2.31c3.76,1.55,7.04,3.61,9.83,6.21c2.79,2.6,5.21,5.74,7.23,9.4
				c2.02,3.66,3.9,7.71,5.64,12.15l81.25,200.4c0.77,1.93,1.16,3.57,1.16,4.91c0,1.93-0.63,3.47-1.88,4.63
				c-1.26,1.16-2.85,1.74-4.77,1.74h-30.94c-4.05,0-6.85-2.12-8.38-6.36l-72-179.58h-1.16l-71.42,179.87
				c-1.55,4.05-4.24,6.07-8.1,6.07h-31.81c-4.43,0-6.65-2.12-6.65-6.36c0-1.92,0.29-3.56,0.87-4.91l80.68-200.4
				c3.47-8.68,8-15.86,13.59-21.55C1707.08,1381.97,1714.89,1379.13,1724.92,1379.13z"/>
			<path class="st4" d="M1907.38,1382.31c2.89,0,4.96,1.01,6.22,3.04c1.25,2.02,1.88,4.39,1.88,7.08v142.27
				c0,6.17,0.43,11.86,1.3,17.06s2.46,9.74,4.77,13.59c2.31,3.86,5.39,6.85,9.25,8.96c3.86,2.12,8.68,3.18,14.46,3.18h93.98
				c2.89,0,4.96,1.01,6.22,3.04c1.25,2.02,1.88,4.39,1.88,7.08v22.85c0,2.7-0.63,5.06-1.88,7.08c-1.26,2.03-3.32,3.04-6.22,3.04
				h-95.43c-15.04,0-27.23-2.26-36.58-6.79c-9.35-4.53-16.58-10.84-21.69-18.94c-5.11-8.1-8.58-17.69-10.41-28.77
				c-1.84-11.08-2.75-23.18-2.75-36.29v-137.36c0-2.7,0.62-5.06,1.88-7.08c1.25-2.03,3.42-3.04,6.51-3.04H1907.38z"/>
			<path class="st4" d="M2264.79,1379.13c1.73,0,3.42,0.63,5.06,1.88c1.64,1.25,2.17,2.65,1.59,4.19l-81.55,205.31
				c-1.74,4.24-3.71,8.19-5.93,11.85c-2.22,3.67-4.77,6.9-7.66,9.69c-2.89,2.8-6.27,4.96-10.12,6.51c-3.86,1.55-8.29,2.31-13.3,2.31
				c-8.1,0-15.09-2.5-20.97-7.52c-5.88-5.01-10.37-11.18-13.45-18.51l-84.15-209.65c-0.77-1.73-0.38-3.18,1.16-4.34
				c1.55-1.16,3.28-1.74,5.21-1.74h31.23c2.5,0,4.24,0.48,5.21,1.45c0.96,0.97,1.92,2.51,2.89,4.63l72.29,179.58v0.29l1.16-0.29
				l71.14-179.58c0.77-1.73,1.88-3.18,3.33-4.34c1.44-1.16,3.13-1.74,5.06-1.74H2264.79z"/>
			<path class="st4" d="M2494.39,1382.31c1.16,0,2.79,0.58,4.91,1.74c2.12,1.16,3.18,3.95,3.18,8.38v22.56
				c0,4.44-1.06,7.23-3.18,8.39c-2.12,1.16-3.76,1.74-4.91,1.74h-166.27c-1.16,0-2.75-0.53-4.77-1.59
				c-2.02-1.06-3.04-3.81-3.04-8.24v-22.56c0-4.63,1.01-7.52,3.04-8.68c2.02-1.16,3.62-1.74,4.77-1.74H2494.39z M2363.69,1551.47
				c0,9.83,2.55,16.68,7.66,20.53c5.11,3.86,12.1,5.78,20.97,5.78h101.79c3.08,0,5.25,0.97,6.51,2.89c1.25,1.93,1.88,4.24,1.88,6.94
				v23.13c0,2.7-0.63,5.02-1.88,6.94c-1.25,1.93-3.42,2.89-6.51,2.89h-102.65c-13.88,0-25.4-1.97-34.55-5.93
				c-9.16-3.95-16.44-9.59-21.83-16.92c-5.4-7.32-9.21-16.14-11.42-26.46c-2.22-10.31-3.32-21.83-3.32-34.55v-38.17
				c0-2.31,0.38-4.67,1.16-7.09c0.77-2.41,2.07-4.53,3.9-6.36c1.83-1.83,4.24-3.33,7.23-4.48c2.99-1.16,6.7-1.74,11.13-1.74h149.21
				c2.89,0,4.96,0.97,6.22,2.89c1.25,1.93,1.88,4.24,1.88,6.94v22.85c0,2.7-0.63,5.06-1.88,7.08c-1.26,2.03-3.33,3.04-6.22,3.04
				h-129.26V1551.47z"/>
			<path class="st4" d="M2747.99,1607.86c1.35,1.93,2.03,3.66,2.03,5.21c0,5.02-2.22,7.52-6.65,7.52h-33.54
				c-3.08,0-5.16-0.43-6.21-1.3c-1.06-0.87-2.37-2.46-3.9-4.77l-58.42-82.7l-58.7,82.99c-1.55,2.12-2.94,3.61-4.2,4.48
				c-1.25,0.87-3.23,1.3-5.93,1.3h-31.81c-4.24,0-6.36-2.31-6.36-6.94c0-1.92,0.67-3.85,2.02-5.78l79.52-112.49l-71.72-100.34
				c-1.16-1.73-1.74-3.66-1.74-5.78c0-4.63,2.12-6.94,6.36-6.94h33.54c2.5,0,4.48,0.43,5.93,1.3c1.44,0.87,2.84,2.36,4.19,4.48
				l51.18,74.03l54.37-74.03c1.54-2.12,2.93-3.61,4.19-4.48c1.25-0.87,3.23-1.3,5.93-1.3h31.81c4.43,0,6.65,2.31,6.65,6.94
				c0,2.31-0.68,4.24-2.03,5.78l-74.03,102.08L2747.99,1607.86z"/>
		</g>
	</g>
</g>
</svg>
