<svg width="17" height="16" viewBox="0 0 17 16" fill="none" xmlns="http://www.w3.org/2000/svg">
<path d="M11.1948 8.24266C11.8741 7.71386 12.3839 6.99577 12.6585 6.17692C12.9542 5.29475 12.9615 4.3414 12.6793 3.45479C12.3972 2.56819 11.8401 1.79433 11.0888 1.24516C10.3374 0.695993 9.43081 0.4 8.50005 0.4C7.56929 0.4 6.66266 0.695993 5.91134 1.24516C5.16001 1.79433 4.60295 2.56819 4.32076 3.45479C4.03857 4.3414 4.04588 5.29475 4.34165 6.17692C4.61618 6.99576 5.12602 7.71385 5.80533 8.24265C4.41592 8.69015 3.19724 9.55698 2.31848 10.7262C1.39981 11.9485 0.902119 13.4355 0.9 14.9644V14.9645C0.9 15.1331 0.966987 15.2947 1.08621 15.4139C1.20543 15.5331 1.36713 15.6 1.53571 15.6H15.4643C15.6329 15.6 15.7946 15.5331 15.9138 15.4139C16.033 15.2947 16.1 15.1331 16.1 14.9645V14.9644C16.0979 13.4355 15.6002 11.9486 14.6816 10.7262C13.8028 9.55701 12.5842 8.69017 11.1948 8.24266ZM5.38571 4.79015C5.38574 4.17453 5.56838 3.57272 5.91056 3.06084C6.25275 2.54892 6.73913 2.14993 7.3082 1.91431C7.87727 1.6787 8.50345 1.61705 9.10758 1.73716C9.7117 1.85728 10.2666 2.15376 10.7021 2.58912C11.1377 3.02447 11.4343 3.57914 11.5544 4.18298C11.6746 4.78681 11.6129 5.41271 11.3772 5.98152C11.1415 6.55032 10.7424 7.0365 10.2302 7.37856C9.71811 7.72059 9.11603 7.90317 8.50011 7.90319C7.6744 7.90225 6.88278 7.57396 6.29892 6.99035C5.71507 6.40674 5.38666 5.61548 5.38571 4.79015ZM12.9396 10.69C13.9796 11.6389 14.6378 12.9327 14.7937 14.329H2.20626C2.3622 12.9327 3.02042 11.6389 4.06041 10.69C5.12747 9.71639 6.51962 9.17584 7.9644 9.17416H9.0356C10.4804 9.17584 11.8725 9.71639 12.9396 10.69Z" fill="#2970FF" stroke="#2970FF" stroke-width="0.2"/>
</svg>
